<svg width="23" height="22" viewBox="0 0 23 22" fill="none" xmlns="http://www.w3.org/2000/svg">
<path d="M6.89148 10.4119L6.89148 5.60859C6.89148 3.06336 8.9548 1.00004 11.5 1.00004V1.00004C14.0453 1.00004 16.1086 3.06336 16.1086 5.60859L16.1086 10.4119" stroke="#868686" stroke-width="1.25" stroke-linecap="round"/>
<path d="M1.98302 10.5567C2.12534 8.81282 2.1965 7.94087 2.77086 7.41148C3.34522 6.88208 4.22007 6.88208 5.96977 6.88208H17.0302C18.7799 6.88208 19.6548 6.88208 20.2292 7.41148C20.8035 7.94087 20.8747 8.81282 21.017 10.5567L21.6927 18.8371C21.7753 19.8492 21.8166 20.3553 21.5196 20.6776C21.2226 20.9998 20.7148 20.9998 19.6994 20.9998H3.30064C2.28517 20.9998 1.77743 20.9998 1.4804 20.6776C1.18337 20.3553 1.22467 19.8492 1.30726 18.8371L1.98302 10.5567Z" stroke="#868686" stroke-width="1.25"/>
</svg>
