<svg width="34" height="34" viewBox="0 0 34 34" fill="none" xmlns="http://www.w3.org/2000/svg">
<path d="M34 17C34 26.3888 26.3887 34 17 34C7.61118 34 0 26.3888 0 17C0 7.61118 7.61118 0 17 0C26.3887 0 34 7.61118 34 17Z" fill="#086788"/>
<path fill-rule="evenodd" clip-rule="evenodd" d="M18.1915 22.8536V17.2973H20.0421L20.3199 15.132H18.1915V13.7495C18.1915 13.1226 18.3641 12.6954 19.2565 12.6954L20.3944 12.6949V10.7582C20.1975 10.7318 19.5217 10.6729 18.7361 10.6729C17.0952 10.6729 15.9718 11.6819 15.9718 13.5351V15.132H14.1159V17.2973H15.9718V22.8536H18.1915Z" fill="white"/>
</svg>
