<svg width="25" height="22" viewBox="0 0 25 22" fill="none" xmlns="http://www.w3.org/2000/svg">
<path d="M3.03769 12.3443L11.7521 20.5306C12.0523 20.8125 12.2023 20.9535 12.3793 20.9883C12.459 21.0039 12.541 21.0039 12.6207 20.9883C12.7976 20.9535 12.9477 20.8125 13.2479 20.5306L21.9623 12.3443C24.4142 10.0411 24.7119 6.25079 22.6498 3.59292L22.262 3.09316C19.7951 -0.086408 14.8434 0.44683 13.11 4.07872C12.8651 4.59175 12.1349 4.59175 11.89 4.07872C10.1566 0.44683 5.20487 -0.0864032 2.73797 3.09317L2.35022 3.59293C0.288082 6.25079 0.585827 10.0411 3.03769 12.3443Z" stroke="#868686"/>
</svg>
