<svg width="14" height="14" viewBox="0 0 14 14" fill="none" xmlns="http://www.w3.org/2000/svg">
<path d="M8.84615 2.38462L2.31479 8.91598L2.31479 8.91598C2.12014 9.11063 2.02281 9.20796 1.95584 9.32624C1.88887 9.44453 1.85548 9.57806 1.78872 9.84512L1.20211 12.1915C1.11186 12.5526 1.06673 12.7331 1.16682 12.8332C1.2669 12.9333 1.44742 12.8881 1.80844 12.7979L1.80845 12.7979L4.15488 12.2113C4.42194 12.1445 4.55547 12.1111 4.67376 12.0442C4.79205 11.9772 4.88937 11.8799 5.08402 11.6852L11.6154 5.15385C12.2533 4.51593 12.5723 4.19697 12.5852 3.8021C12.586 3.78019 12.586 3.75827 12.5852 3.73636C12.5723 3.34149 12.2533 3.02253 11.6154 2.38462C10.9775 1.7467 10.6585 1.42774 10.2636 1.41475C10.2417 1.41403 10.2198 1.41403 10.1979 1.41475C9.80303 1.42774 9.48407 1.7467 8.84615 2.38462Z" stroke="#010C10"/>
</svg>
