<svg width="19" height="17" viewBox="0 0 19 17" fill="none" xmlns="http://www.w3.org/2000/svg">
<path d="M2.51761 9.50824L8.9481 15.6479C9.16961 15.8594 9.28036 15.9652 9.41095 15.9912C9.46976 16.0029 9.53025 16.0029 9.58905 15.9912C9.71964 15.9652 9.83039 15.8594 10.0519 15.6479L16.4824 9.50824C18.2917 7.78079 18.5114 4.93809 16.9897 2.94469L16.7036 2.56987C14.8832 0.185194 11.2292 0.585122 9.95012 3.30904C9.76944 3.69381 9.23056 3.69381 9.04988 3.30904C7.77078 0.585122 4.11681 0.185198 2.29644 2.56987L2.01031 2.94469C0.488626 4.9381 0.708337 7.78079 2.51761 9.50824Z" stroke="#DD1C1A"/>
</svg>
