<svg width="62" height="10" viewBox="0 0 62 10" fill="none" xmlns="http://www.w3.org/2000/svg">
<path d="M5 8.03684L8.09 10L7.27 6.3L10 3.81053L6.405 3.48421L5 0L3.595 3.48421L0 3.81053L2.725 6.3L1.91 10L5 8.03684Z" fill="#F0C808"/>
<path d="M18 8.03684L21.09 10L20.27 6.3L23 3.81053L19.405 3.48421L18 0L16.595 3.48421L13 3.81053L15.725 6.3L14.91 10L18 8.03684Z" fill="#F0C808"/>
<path d="M31 8.03684L34.09 10L33.27 6.3L36 3.81053L32.405 3.48421L31 0L29.595 3.48421L26 3.81053L28.725 6.3L27.91 10L31 8.03684Z" fill="#F0C808"/>
<path d="M44 8.03684L47.09 10L46.27 6.3L49 3.81053L45.405 3.48421L44 0L42.595 3.48421L39 3.81053L41.725 6.3L40.91 10L44 8.03684Z" fill="#F0C808"/>
<path d="M57 8.03684L60.09 10L59.27 6.3L62 3.81053L58.405 3.48421L57 0L55.595 3.48421L52 3.81053L54.725 6.3L53.91 10L57 8.03684Z" fill="#F0C808"/>
</svg>
