<svg width="40" height="40" viewBox="0 0 40 40" fill="none" xmlns="http://www.w3.org/2000/svg">
<rect width="40" height="40" fill="white"/>
<path fill-rule="evenodd" clip-rule="evenodd" d="M22.9477 10.6621C22.0512 10.2367 21.0506 10 19.9996 10C16.4907 10 13.5433 12.639 13.157 16.1265L12.8667 18.7475C12.8346 19.0371 12.8198 19.17 12.8006 19.3002C12.6703 20.1867 12.3822 21.0428 11.9499 21.8277C11.8864 21.9429 11.8178 22.0578 11.6682 22.3078L11.0066 23.414L10.9872 23.4464C10.6416 24.0241 10.3557 24.5021 10.1875 24.8952C10.0159 25.2965 9.91128 25.7321 10.1021 26.1629C10.1422 26.2534 10.1911 26.3397 10.2482 26.4206C10.52 26.8055 10.9475 26.9393 11.38 26.998C11.8037 27.0555 12.3606 27.0554 13.0338 27.0554H13.0716H26.9275H26.9654C27.6385 27.0554 28.1954 27.0555 28.6192 26.998C29.0517 26.9393 29.4792 26.8055 29.751 26.4206C29.8081 26.3397 29.857 26.2534 29.8971 26.1629C30.0879 25.7321 29.9833 25.2965 29.8117 24.8952C29.6435 24.5021 29.3576 24.0242 29.012 23.4465L28.9926 23.414L28.3309 22.3078C28.1814 22.0578 28.1128 21.9429 28.0493 21.8277C27.617 21.0428 27.3289 20.1867 27.1985 19.3002C27.1794 19.17 27.1646 19.0371 27.1325 18.7475L27.0521 18.0215C26.7386 18.1244 26.409 18.1921 26.068 18.2198L26.1386 18.8575L26.1399 18.8688C26.1704 19.1445 26.1871 19.2958 26.2092 19.4456C26.3569 20.4504 26.6834 21.4205 27.1733 22.3101C27.2464 22.4428 27.3246 22.5735 27.4671 22.8117L27.4727 22.8212L28.1344 23.9273C28.5043 24.5457 28.754 24.9653 28.8923 25.2886C29.0302 25.6111 29.0018 25.715 28.9828 25.7579C28.9694 25.7881 28.9531 25.8168 28.9341 25.8438C28.907 25.8822 28.8324 25.9599 28.4848 26.007C28.1364 26.0543 27.6482 26.0554 26.9275 26.0554H13.0716C12.351 26.0554 11.8628 26.0543 11.5144 26.007C11.1668 25.9599 11.0922 25.8822 11.0651 25.8438C11.0461 25.8168 11.0298 25.7881 11.0164 25.7579C10.9974 25.715 10.969 25.6111 11.1069 25.2886C11.2452 24.9653 11.4949 24.5457 11.8648 23.9273L12.5264 22.8212L12.5321 22.8117C12.6746 22.5735 12.7527 22.4428 12.8258 22.3101C13.3158 21.4205 13.6423 20.4504 13.79 19.4456C13.812 19.2958 13.8288 19.1445 13.8593 18.8686L13.8594 18.8686L13.8606 18.8576L14.1509 16.2366C14.4811 13.2557 17.0004 11 19.9996 11C20.7871 11 21.5416 11.1555 22.232 11.4389C22.438 11.1515 22.6785 10.8905 22.9477 10.6621ZM24.7215 11.8745C24.4133 12.0241 24.1436 12.2411 23.9315 12.5064C24.9724 13.4412 25.6815 14.7456 25.8476 16.2303C26.1989 16.2103 26.529 16.1108 26.8203 15.9493C26.6004 14.3408 25.8337 12.9225 24.7215 11.8745Z" fill="#010C10"/>
<path d="M16.6869 27.0207C16.8823 27.8742 17.3129 28.6284 17.9119 29.1663C18.5109 29.7042 19.2448 29.9957 19.9998 29.9957C20.7548 29.9957 21.4888 29.7042 22.0878 29.1663C22.6868 28.6284 23.1173 27.8742 23.3128 27.0207" stroke="#010C10" stroke-linecap="round"/>
<ellipse cx="25.7162" cy="13.9404" rx="2.28653" ry="2.29363" fill="#DD1C1A"/>
</svg>
