<svg width="133" height="28" viewBox="0 0 133 28" fill="none" xmlns="http://www.w3.org/2000/svg">
<path d="M3.9138 17.5388C3.9138 18.8508 4.15318 20.0247 4.63193 21.0604C5.11068 22.0962 5.76897 22.6141 6.60679 22.6141C7.13341 22.6141 7.54035 22.4184 7.82761 22.0271C8.13879 21.6358 8.3303 21.187 8.40211 20.6806C8.49786 20.1513 8.54573 19.4838 8.54573 18.6782C8.54573 18.1488 8.53377 17.3202 8.50983 16.1924C8.50983 15.0645 8.50983 14.1669 8.50983 13.4994C8.50983 12.8319 8.5218 12.0378 8.54573 11.1171C8.59361 10.1965 8.66542 9.37937 8.76117 8.66585L12.6032 9.11467C12.4835 9.75915 12.3997 10.4957 12.3518 11.3243C12.3039 12.1529 12.28 12.8664 12.28 13.4649C12.28 14.0633 12.28 14.9264 12.28 16.0543C12.3039 17.1821 12.3159 18.0337 12.3159 18.6091C12.3159 20.7957 11.8132 22.6025 10.8078 24.0296C9.80246 25.4566 8.28242 26.1702 6.24772 26.1702C4.40452 26.1702 2.89645 25.3531 1.72351 23.7189C0.574503 22.0847 0 20.1167 0 17.815C0 15.8816 0.287252 14.0403 0.861755 12.291C1.43626 10.5417 2.25014 8.97657 3.30339 7.59556C4.35665 6.21455 5.72109 5.12125 7.39673 4.31566C9.07236 3.51007 10.9395 3.10728 12.9981 3.10728C15.1286 3.10728 16.9718 3.71722 18.5277 4.93711C20.1076 6.15701 20.8976 7.6416 20.8976 9.39088C20.8976 11.5084 19.9879 12.9815 18.1687 13.8101L18.2046 13.9137C19.7126 13.9827 20.9574 14.5467 21.9388 15.6054C22.9203 16.6642 23.411 17.9301 23.411 19.4032C23.411 21.3136 22.7168 22.9248 21.3284 24.2367C19.94 25.5257 18.2285 26.1702 16.1938 26.1702C14.8294 26.1702 13.4889 25.7328 12.1723 24.8582L14.183 21.82C14.7336 22.3494 15.4278 22.6141 16.2656 22.6141C17.2471 22.6141 18.025 22.3033 18.5995 21.6819C19.198 21.0604 19.4972 20.3469 19.4972 19.5413C19.4972 18.5746 19.1621 17.8266 18.4918 17.2972C17.8216 16.7448 16.9359 16.4686 15.8347 16.4686C15.1884 16.4686 14.6139 16.5491 14.1112 16.7102L13.3213 13.3958C14.4464 13.2347 15.3321 12.8319 15.9784 12.1874C16.6486 11.543 16.9837 10.7949 16.9837 9.94328C16.9837 8.95356 16.5648 8.15948 15.727 7.56104C14.8892 6.9626 13.8479 6.66338 12.6032 6.66338C9.94609 6.66338 7.82761 7.73366 6.24772 9.87423C4.69178 11.9918 3.9138 14.5467 3.9138 17.5388Z" fill="#010C10"/>
<path d="M40.7866 26.1702C39.9009 26.1702 39.0153 25.9745 38.1296 25.5832C37.2678 25.1689 36.5976 24.5935 36.1188 23.857C35.5682 24.5475 34.8022 25.1114 33.8208 25.5487C32.8393 25.963 31.822 26.1702 30.7687 26.1702C29.2367 26.1702 27.992 25.6753 27.0345 24.6856C26.053 23.6959 25.5623 22.3954 25.5623 20.7842C25.5623 18.3444 25.9453 14.984 26.7113 10.7028L30.6251 11.2207C30.29 12.6708 30.0027 14.282 29.7634 16.0543C29.524 17.8266 29.4043 19.0695 29.4043 19.783C29.4043 20.6116 29.5958 21.2906 29.9788 21.82C30.3618 22.3494 30.8884 22.6141 31.5587 22.6141C32.5401 22.6141 33.4019 22.0617 34.1439 20.9568C34.91 19.852 35.3767 18.2293 35.5443 16.0888C35.64 13.4418 35.676 11.7386 35.652 10.979H39.6735C39.1708 15.6745 38.9195 18.5746 38.9195 19.6794C38.9195 20.531 39.099 21.233 39.4581 21.7855C39.8172 22.3379 40.3558 22.6141 41.0739 22.6141C43.2283 22.6141 44.5927 20.8648 45.1672 17.3662L48.6142 18.402C47.6328 23.5808 45.0236 26.1702 40.7866 26.1702Z" fill="#010C10"/>
<path d="M52.7098 26.1702C50.1485 26.1702 48.2335 25.3646 46.9648 23.7534C45.72 22.1422 45.0977 19.8981 45.0977 17.021C45.0977 15.0185 45.2413 13.0851 45.5285 11.2207C45.8158 9.35635 46.2826 7.54953 46.9289 5.80025C47.5752 4.05097 48.4968 2.64694 49.6937 1.58816C50.9145 0.529388 52.3508 0 54.0025 0C55.3908 0 56.4561 0.460337 57.1981 1.38101C57.9641 2.30169 58.3471 3.39499 58.3471 4.66091C58.3471 7.03165 57.4375 9.36786 55.6182 11.6695C53.799 13.9482 51.5369 15.6169 48.8319 16.6757V16.7102C48.8319 18.6437 49.1671 20.1167 49.8373 21.1295C50.5315 22.1192 51.477 22.6141 52.6739 22.6141C54.3974 22.6141 55.9055 21.9926 57.1981 20.7497C58.5147 19.4838 59.2089 18.1258 59.2807 16.6757L62.7277 17.7115C62.1293 19.9441 60.9324 21.912 59.1371 23.6153C57.3418 25.3185 55.1993 26.1702 52.7098 26.1702ZM53.3561 3.55611C52.255 3.55611 51.3214 4.39622 50.5554 6.07645C49.7894 7.73366 49.2748 9.94328 49.0115 12.7053C50.3759 12.0838 51.6326 11.0021 52.7816 9.45993C53.9306 7.89478 54.5051 6.41019 54.5051 5.00617C54.5051 4.59186 54.3974 4.24661 54.182 3.97041C53.9905 3.69421 53.7152 3.55611 53.3561 3.55611Z" fill="#010C10"/>
<path d="M74.4181 18.402C73.9872 20.7727 72.9818 22.6601 71.4019 24.0641C69.822 25.4681 67.8113 26.1702 65.3697 26.1702C63.5743 26.1702 62.0782 25.6868 60.8813 24.7201C59.6845 23.7304 59.086 22.4184 59.086 20.7842C59.086 18.6206 59.1339 17.1476 59.2296 16.365C59.3015 15.6515 59.4331 14.7423 59.6246 13.6375C59.0501 13.6145 58.4517 13.5569 57.8293 13.4649L58.4038 10.3231C58.9783 10.4151 59.5648 10.4842 60.1632 10.5302C60.4026 9.2873 60.7976 7.58405 61.3481 5.42047L65.0465 6.18003C64.7832 7.26182 64.4481 8.76942 64.0411 10.7028H66.3391C67.2966 10.7028 68.0028 10.7489 68.4576 10.8409L68.0985 13.9137C67.6198 13.8446 66.8538 13.8101 65.8005 13.8101H63.5025C63.4068 14.4316 63.2512 15.5019 63.0357 17.021C62.94 17.8496 62.8921 18.6667 62.8921 19.4723C62.8921 20.439 63.1554 21.21 63.682 21.7855C64.2087 22.3379 64.9268 22.6141 65.8364 22.6141C67.1051 22.6141 68.1823 22.1767 69.068 21.3021C69.9776 20.4044 70.612 19.0925 70.9711 17.3662L74.4181 18.402Z" fill="#010C10"/>
<path d="M95.4099 28C94.2848 28 92.7049 27.5972 90.6702 26.7916C88.6355 26.009 87.0078 25.6178 85.787 25.6178C84.3746 25.6178 83.4171 25.7098 82.9144 25.894L82.4836 22.476C83.0102 22.1767 83.9916 22.0271 85.4279 22.0271C85.763 22.0271 86.0144 22.0386 86.1819 22.0617C88.4081 21.118 90.3949 19.6794 92.1424 17.746C93.9138 15.8126 94.7995 13.7871 94.7995 11.6695C94.7995 10.2425 94.4045 9.05713 93.6146 8.11344C92.8246 7.14673 91.7235 6.66338 90.3112 6.66338C88.8031 6.66338 87.6301 7.16975 86.7923 8.18249C85.9545 9.17222 85.5356 10.4151 85.5356 11.9112C85.5356 13.0621 85.9679 13.9723 86.3255 14.8804C87.0372 16.6872 88.2635 21.1925 89.431 21.7855L86.3255 22.6141C85.1047 21.7104 83.651 18.6782 82.9503 16.7793C82.2497 14.8804 81.6936 13.8101 81.6936 12.0838C81.6936 9.48294 82.5314 7.34238 84.2071 5.66215C85.9066 3.9589 88.0371 3.10728 90.5984 3.10728C93.1119 3.10728 95.0867 3.92437 96.523 5.55857C97.9832 7.16975 98.7133 9.10316 98.7133 11.3588C98.7133 13.9137 97.8994 16.2614 96.2716 18.402C94.6678 20.5195 92.7767 22.0847 90.5984 23.0974C93.0401 23.9721 94.6798 24.4094 95.5176 24.4094C97.0496 24.4094 98.3063 23.9836 99.2878 23.1319L100.688 26.4464C99.3476 27.4821 97.5882 28 95.4099 28Z" fill="#010C10"/>
<path d="M125.531 26.1702C123.114 26.1702 121.33 24.7661 120.181 21.9581C119.463 20.1628 118.925 19.0464 118.566 18.6091C118.087 18.0107 117.524 17.7115 116.878 17.7115H115.442V18.6091C115.442 20.7957 114.939 22.6025 113.934 24.0296C112.928 25.4566 111.408 26.1702 109.374 26.1702C107.53 26.1702 106.022 25.3531 104.849 23.7189C103.7 22.0847 103.126 20.1167 103.126 17.815C103.126 15.2141 103.605 12.8204 104.562 10.6338C105.52 8.42417 106.968 6.61735 108.907 5.21332C110.87 3.80929 113.156 3.10728 115.765 3.10728C118.254 3.10728 120.361 3.79778 122.084 5.17879C123.808 6.5598 124.67 8.29758 124.67 10.3921C124.67 12.7398 123.389 14.6617 120.828 16.1578C121.354 16.5721 121.785 17.0785 122.12 17.6769C122.455 18.2524 122.85 19.0925 123.305 20.1973C123.64 21.0029 123.987 21.6128 124.347 22.0271C124.73 22.4184 125.232 22.6141 125.855 22.6141C127.698 22.6141 128.931 20.8648 129.553 17.3662L133 18.402C132.593 20.6806 131.791 22.545 130.594 23.9951C129.397 25.4451 127.71 26.1702 125.531 26.1702ZM109.733 22.6141C110.259 22.6141 110.666 22.4184 110.953 22.0271C111.265 21.6358 111.456 21.187 111.528 20.6806C111.624 20.1513 111.672 19.4838 111.672 18.6782C111.672 18.1488 111.66 17.3202 111.636 16.1924C111.636 15.0645 111.636 14.1669 111.636 13.4994C111.636 12.8319 111.648 12.0378 111.672 11.1171C111.719 10.1965 111.791 9.37937 111.887 8.66585L115.729 9.11467C115.466 10.4957 115.358 12.3716 115.406 14.7423H116.088C117.285 14.7423 118.362 14.3625 119.32 13.603C120.277 12.8434 120.756 11.8882 120.756 10.7374C120.756 9.49445 120.241 8.50473 119.212 7.76819C118.207 7.03165 116.926 6.66338 115.37 6.66338C112.856 6.66338 110.834 7.73366 109.302 9.87423C107.794 12.0148 107.04 14.5697 107.04 17.5388C107.04 18.8508 107.279 20.0247 107.758 21.0604C108.237 22.0962 108.895 22.6141 109.733 22.6141Z" fill="#010C10"/>
</svg>
