<svg width="228" height="48" viewBox="0 0 228 48" fill="none" xmlns="http://www.w3.org/2000/svg">
<path d="M6.70938 30.0666C6.70938 32.3157 7.11974 34.328 7.94045 36.1036C8.76117 37.8792 9.88966 38.767 11.3259 38.767C12.2287 38.767 12.9263 38.4316 13.4188 37.7608C13.9522 37.09 14.2805 36.3206 14.4036 35.4525C14.5678 34.545 14.6498 33.4007 14.6498 32.0197C14.6498 31.1122 14.6293 29.6917 14.5883 27.7583C14.5883 25.8249 14.5883 24.2861 14.5883 23.1418C14.5883 21.9975 14.6088 20.6363 14.6498 19.058C14.7319 17.4797 14.855 16.0789 15.0192 14.8557L21.6054 15.6252C21.4002 16.73 21.2566 17.9926 21.1745 19.4131C21.0925 20.8335 21.0514 22.0567 21.0514 23.0826C21.0514 24.1085 21.0514 25.5882 21.0514 27.5216C21.0925 29.455 21.113 30.9149 21.113 31.9014C21.113 35.6498 20.2512 38.7472 18.5277 41.1936C16.8042 43.6399 14.1984 44.8631 10.7104 44.8631C7.55061 44.8631 4.96535 43.4624 2.95459 40.6609C0.984863 37.8594 0 34.4858 0 30.5401C0 27.2256 0.492431 24.069 1.47729 21.0703C2.46216 18.0715 3.85738 15.3884 5.66296 13.021C7.46854 10.6535 9.80759 8.77929 12.6801 7.39828C15.5526 6.01726 18.7534 5.32676 22.2825 5.32676C25.9347 5.32676 29.0945 6.37238 31.7618 8.46362C34.4702 10.5549 35.8244 13.0999 35.8244 16.0986C35.8244 19.7287 34.265 22.254 31.1463 23.6745L31.2078 23.852C33.7931 23.9704 35.927 24.9371 37.6094 26.7522C39.2919 28.5672 40.1332 30.7374 40.1332 33.2626C40.1332 36.5376 38.9431 39.2996 36.563 41.5487C34.1829 43.7583 31.2489 44.8631 27.7608 44.8631C25.4218 44.8631 23.1238 44.1134 20.8668 42.6141L24.3138 37.4057C25.2576 38.3132 26.4477 38.767 27.8839 38.767C29.5664 38.767 30.9001 38.2343 31.8849 37.1689C32.9108 36.1036 33.4238 34.8804 33.4238 33.4994C33.4238 31.8422 32.8493 30.5598 31.7003 29.6523C30.5513 28.7053 29.0329 28.2318 27.1453 28.2318C26.0373 28.2318 25.0524 28.3699 24.1907 28.6461L22.8365 22.9642C24.7652 22.688 26.2835 21.9975 27.3915 20.8927C28.5405 19.7879 29.115 18.5056 29.115 17.0456C29.115 15.349 28.3969 13.9877 26.9606 12.9618C25.5244 11.9359 23.7393 11.4229 21.6054 11.4229C17.0504 11.4229 13.4188 13.2577 10.7104 16.9272C8.04304 20.5573 6.70938 24.9371 6.70938 30.0666Z" fill="white"/>
<path d="M69.92 44.8631C68.4016 44.8631 66.8833 44.5277 65.365 43.857C63.8877 43.1467 62.7387 42.1603 61.9179 40.8977C60.9741 42.0814 59.661 43.0481 57.9785 43.7978C56.296 44.508 54.552 44.8631 52.7464 44.8631C50.1201 44.8631 47.9862 44.0148 46.3448 42.3181C44.6623 40.6215 43.8211 38.3921 43.8211 35.6301C43.8211 31.4476 44.4777 25.6868 45.7908 18.3477L52.5002 19.2355C51.9257 21.7213 51.4333 24.4834 51.0229 27.5216C50.6125 30.5598 50.4074 32.6905 50.4074 33.9137C50.4074 35.3342 50.7356 36.4981 51.3922 37.4057C52.0488 38.3132 52.9516 38.767 54.1006 38.767C55.7831 38.767 57.2604 37.82 58.5325 35.926C59.8456 34.0321 60.6458 31.2503 60.9331 27.5808C61.0972 23.0432 61.1588 20.1233 61.1177 18.8212H68.0118C67.15 26.8705 66.7191 31.8422 66.7191 33.7361C66.7191 35.1961 67.0269 36.3995 67.6425 37.3465C68.258 38.2935 69.1813 38.767 70.4124 38.767C74.1056 38.767 76.4447 35.7682 77.4295 29.7707L83.3387 31.5462C81.6562 40.4242 77.1833 44.8631 69.92 44.8631Z" fill="white"/>
<path d="M90.3597 44.8631C85.9688 44.8631 82.686 43.4821 80.5111 40.7201C78.3772 37.9581 77.3103 34.111 77.3103 29.1788C77.3103 25.746 77.5565 22.4316 78.0489 19.2355C78.5413 16.0395 79.3415 12.942 80.4495 9.94328C81.5575 6.94451 83.1374 4.53761 85.1892 2.72256C87.282 0.907521 89.7442 0 92.5756 0C94.9557 0 96.7818 0.78915 98.0539 2.36745C99.3671 3.94575 100.024 5.81998 100.024 7.99014C100.024 12.0543 98.4643 16.0592 95.3456 20.0049C92.2268 23.9112 88.3489 26.7719 83.7119 28.5869V28.6461C83.7119 31.9605 84.2864 34.4858 85.4354 36.2219C86.6254 37.9186 88.2463 38.767 90.2981 38.767C93.2527 38.767 95.838 37.7016 98.0539 35.5709C100.311 33.4007 101.501 31.0728 101.624 28.5869L107.533 30.3625C106.507 34.1899 104.456 37.5635 101.378 40.4834C98.3001 43.4032 94.6274 44.8631 90.3597 44.8631ZM91.4677 6.09618C89.58 6.09618 87.9796 7.53638 86.6665 10.4168C85.3533 13.2577 84.471 17.0456 84.0196 21.7805C86.3587 20.7152 88.5131 18.8607 90.4828 16.217C92.4525 13.5339 93.4374 10.9889 93.4374 8.582C93.4374 7.87177 93.2527 7.2799 92.8834 6.80641C92.5551 6.33292 92.0832 6.09618 91.4677 6.09618Z" fill="white"/>
<path d="M127.574 31.5462C126.835 35.6104 125.112 38.8459 122.403 41.2528C119.695 43.6597 116.248 44.8631 112.062 44.8631C108.985 44.8631 106.42 44.0345 104.368 42.3773C102.316 40.6806 101.29 38.4316 101.29 35.6301C101.29 31.9211 101.372 29.3958 101.537 28.0543C101.66 26.8311 101.885 25.2725 102.214 23.3785C101.229 23.3391 100.203 23.2404 99.1359 23.0826L100.121 17.6967C101.106 17.8545 102.111 17.9729 103.137 18.0518C103.547 15.9211 104.224 13.0012 105.168 9.29223L111.508 10.5943C111.057 12.4488 110.482 15.0333 109.785 18.3477H113.724C115.366 18.3477 116.576 18.4266 117.356 18.5845L116.74 23.852C115.92 23.7337 114.606 23.6745 112.801 23.6745H108.861C108.697 24.7398 108.431 26.5746 108.061 29.1788C107.897 30.5993 107.815 32 107.815 33.381C107.815 35.0382 108.266 36.3601 109.169 37.3465C110.072 38.2935 111.303 38.767 112.862 38.767C115.037 38.767 116.884 38.0173 118.402 36.5179C119.962 34.979 121.049 32.73 121.665 29.7707L127.574 31.5462Z" fill="white"/>
<path d="M163.56 48C161.631 48 158.923 47.3095 155.435 45.9285C151.947 44.5869 149.156 43.9162 147.063 43.9162C144.642 43.9162 143.001 44.074 142.139 44.3896L141.4 38.5302C142.303 38.0173 143.986 37.7608 146.448 37.7608C147.022 37.7608 147.453 37.7805 147.74 37.82C151.557 36.2022 154.963 33.7361 157.958 30.4217C160.995 27.1073 162.513 23.635 162.513 20.0049C162.513 17.5586 161.836 15.5265 160.482 13.9088C159.128 12.2515 157.24 11.4229 154.819 11.4229C152.234 11.4229 150.223 12.291 148.787 14.0271C147.351 15.7238 146.632 17.8545 146.632 20.4192C146.632 22.3921 147.373 23.9524 147.987 25.5092C149.207 28.6067 151.309 36.3301 153.31 37.3465L147.987 38.767C145.894 37.2178 143.402 32.0197 142.201 28.7645C140.999 25.5092 140.046 23.6745 140.046 20.7152C140.046 16.2565 141.482 12.5869 144.355 9.70654C147.269 6.78668 150.921 5.32676 155.312 5.32676C159.62 5.32676 163.006 6.7275 165.468 9.52898C167.971 12.291 169.223 15.6054 169.223 19.4723C169.223 23.852 167.828 27.8767 165.037 31.5462C162.288 35.1763 159.046 37.8594 155.312 39.5956C159.497 41.0949 162.308 41.8446 163.744 41.8446C166.371 41.8446 168.525 41.1147 170.208 39.6547L172.608 45.3366C170.31 47.1122 167.294 48 163.56 48Z" fill="white"/>
<path d="M215.197 44.8631C211.052 44.8631 207.995 42.4562 206.025 37.6424C204.794 34.5647 203.871 32.6511 203.255 31.9014C202.435 30.8755 201.47 30.3625 200.362 30.3625H197.9V31.9014C197.9 35.6498 197.038 38.7472 195.315 41.1936C193.591 43.6399 190.986 44.8631 187.498 44.8631C184.338 44.8631 181.753 43.4624 179.742 40.6609C177.772 37.8594 176.787 34.4858 176.787 30.5401C176.787 26.0814 177.608 21.9778 179.249 18.2293C180.891 14.4414 183.373 11.344 186.697 8.93712C190.062 6.53021 193.981 5.32676 198.454 5.32676C202.722 5.32676 206.333 6.51048 209.288 8.87793C212.242 11.2454 213.719 14.2244 213.719 17.815C213.719 21.8397 211.524 25.1344 207.133 27.6991C208.036 28.4094 208.775 29.2774 209.349 30.3033C209.924 31.2898 210.601 32.73 211.38 34.6239C211.955 36.0049 212.55 37.0506 213.166 37.7608C213.822 38.4316 214.684 38.767 215.751 38.767C218.911 38.767 221.024 35.7682 222.091 29.7707L228 31.5462C227.302 35.4525 225.928 38.6486 223.876 41.1344C221.824 43.6202 218.931 44.8631 215.197 44.8631ZM188.113 38.767C189.016 38.767 189.713 38.4316 190.206 37.7608C190.739 37.09 191.068 36.3206 191.191 35.4525C191.355 34.545 191.437 33.4007 191.437 32.0197C191.437 31.1122 191.416 29.6917 191.375 27.7583C191.375 25.8249 191.375 24.2861 191.375 23.1418C191.375 21.9975 191.396 20.6363 191.437 19.058C191.519 17.4797 191.642 16.0789 191.806 14.8557L198.393 15.6252C197.941 17.9926 197.757 21.2084 197.839 25.2725H199.008C201.06 25.2725 202.907 24.6215 204.548 23.3194C206.189 22.0173 207.01 20.3798 207.01 18.4069C207.01 16.2762 206.128 14.5795 204.363 13.3169C202.64 12.0543 200.444 11.4229 197.777 11.4229C193.468 11.4229 190.001 13.2577 187.374 16.9272C184.789 20.5968 183.497 24.9766 183.497 30.0666C183.497 32.3157 183.907 34.328 184.728 36.1036C185.548 37.8792 186.677 38.767 188.113 38.767Z" fill="white"/>
</svg>
