<svg width="26" height="22" viewBox="0 0 26 22" fill="none" xmlns="http://www.w3.org/2000/svg">
<path d="M3.53769 12.3443L12.2521 20.5306C12.5523 20.8125 12.7023 20.9535 12.8793 20.9883C12.959 21.0039 13.041 21.0039 13.1207 20.9883C13.2976 20.9535 13.4477 20.8125 13.7479 20.5306L22.4623 12.3443C24.9142 10.0411 25.2119 6.25079 23.1498 3.59292L22.762 3.09316C20.2951 -0.086408 15.3434 0.44683 13.61 4.07872C13.3651 4.59175 12.6349 4.59175 12.39 4.07872C10.6566 0.44683 5.70487 -0.0864032 3.23797 3.09317L2.85022 3.59293C0.788082 6.25079 1.08583 10.0411 3.53769 12.3443Z" stroke="#868686"/>
</svg>
