<svg width="34" height="34" viewBox="0 0 34 34" fill="none" xmlns="http://www.w3.org/2000/svg">
<path d="M34 17C34 26.3888 26.3888 34 17 34C7.61126 34 0 26.3888 0 17C0 7.61118 7.61126 0 17 0C26.3888 0 34 7.61118 34 17Z" fill="#DD1C1A"/>
<path d="M17.1544 16.2575H23.7481C23.7821 16.549 23.7999 16.8481 23.7999 17.1541C23.7999 19.2245 23.0426 20.9677 21.7305 22.1521C20.583 23.1904 19.0121 23.7992 17.139 23.7992C16.2277 23.7996 15.3252 23.624 14.4832 23.2825C13.6412 22.9409 12.8761 22.4401 12.2317 21.8086C11.5872 21.1771 11.0761 20.4274 10.7275 19.6022C10.3789 18.7771 10.1996 17.8927 10.1999 16.9996C10.1995 16.1064 10.3787 15.222 10.7273 14.3967C11.0758 13.5715 11.587 12.8217 12.2314 12.1901C12.8758 11.5586 13.641 11.0577 14.483 10.7161C15.3251 10.3744 16.2276 10.1988 17.139 10.1992C19.009 10.1992 20.5799 10.8732 21.7815 11.9705L20.6518 13.0769C19.757 12.2295 18.5477 11.7138 17.1544 11.7138C16.4441 11.7138 15.7407 11.8509 15.0845 12.1173C14.4282 12.3837 13.8319 12.7742 13.3296 13.2664C12.8274 13.7586 12.4289 14.343 12.1571 14.9862C11.8853 15.6293 11.7453 16.3186 11.7453 17.0147C11.7453 17.7109 11.8853 18.4002 12.1571 19.0433C12.4289 19.6865 12.8274 20.2708 13.3296 20.7631C13.8319 21.2553 14.4282 21.6458 15.0845 21.9122C15.7407 22.1786 16.4441 22.3157 17.1544 22.3157C19.8791 22.3157 21.9021 20.3407 22.2367 17.772H17.1544V16.2575Z" fill="white"/>
</svg>
