<svg width="20" height="22" viewBox="0 0 20 22" fill="none" xmlns="http://www.w3.org/2000/svg">
<path d="M1.27658 10.7308C1.27658 9.03877 1.27658 8.19275 1.61861 7.44909C1.96065 6.70544 2.603 6.15485 3.88769 5.05369L5.13389 3.98552C7.45596 1.99517 8.61699 1 9.99999 1C11.383 1 12.544 1.99517 14.8661 3.98552L16.1123 5.05369C17.397 6.15485 18.0393 6.70544 18.3814 7.44909C18.7234 8.19275 18.7234 9.03877 18.7234 10.7308V16.0152C18.7234 18.3651 18.7234 19.54 17.9934 20.27C17.2634 21 16.0885 21 13.7386 21H6.26139C3.91153 21 2.7366 21 2.00659 20.27C1.27658 19.54 1.27658 18.3651 1.27658 16.0152V10.7308Z" stroke="#868686"/>
<path d="M13.1155 21.0002V14.5229C13.1155 13.9707 12.6678 13.5229 12.1155 13.5229H7.88449C7.33221 13.5229 6.88449 13.9707 6.88449 14.5229V21.0002" stroke="#868686" stroke-linecap="round" stroke-linejoin="round"/>
</svg>
