<svg width="34" height="34" viewBox="0 0 34 34" fill="none" xmlns="http://www.w3.org/2000/svg">
<path d="M34 17C34 26.3888 26.3888 34 17 34C7.61118 34 0 26.3888 0 17C0 7.61118 7.61118 0 17 0C26.3888 0 34 7.61118 34 17Z" fill="#55ACEF"/>
<path fill-rule="evenodd" clip-rule="evenodd" d="M22.6263 13.882C23.1623 13.5613 23.5737 13.0528 23.7675 12.4469C23.2656 12.7439 22.7109 12.9599 22.1183 13.0758C21.646 12.5716 20.971 12.2568 20.224 12.2568C18.7916 12.2568 17.6294 13.4188 17.6294 14.8517C17.6294 15.0551 17.6517 15.2526 17.6963 15.4426C15.5391 15.3342 13.627 14.3023 12.3461 12.7305C12.1225 13.1151 11.9948 13.5613 11.9948 14.0365C11.9948 14.9363 12.453 15.7304 13.1496 16.1961C12.7248 16.1834 12.3238 16.0656 11.9733 15.8727V15.9043C11.9733 17.1623 12.8681 18.2116 14.0562 18.4488C13.8387 18.5097 13.6092 18.5397 13.3723 18.5397C13.2052 18.5397 13.0419 18.5247 12.8837 18.4939C13.2142 19.5249 14.172 20.2753 15.3082 20.2951C14.4201 20.9917 13.3003 21.4068 12.0847 21.4068C11.8753 21.4068 11.6681 21.3949 11.4654 21.3712C12.6141 22.1058 13.979 22.5359 15.4441 22.5359C20.2188 22.5359 22.8289 18.5824 22.8289 15.1531C22.8289 15.0403 22.8267 14.9274 22.8223 14.8168C23.3294 14.4507 23.7698 13.9942 24.1166 13.4737C23.6517 13.6801 23.1512 13.8196 22.6263 13.882Z" fill="white"/>
</svg>
